<svg width="20" height="20" viewBox="0 0 20 20" fill="none" xmlns="http://www.w3.org/2000/svg">
    <path d="M10 17.5c-.54-.48-1.15-.97-1.79-1.5-2.27-1.85-4.83-3.94-5.97-6.45A6.19 6.19 0 0 1 1.67 7a4.5 4.5 0 0 1 4.58-4.5A5.13 5.13 0 0 1 10 4.17a5.13 5.13 0 0 1 3.75-1.67A4.5 4.5 0 0 1 18.33 7c0 .88-.2 1.75-.57 2.55-1.14 2.51-3.7 4.6-5.96 6.45h-.01c-.64.53-1.25 1.03-1.79 1.5ZM6.25 4.17a2.95 2.95 0 0 0-2.08.82A2.79 2.79 0 0 0 3.33 7c.01.64.16 1.27.43 1.86a10.26 10.26 0 0 0 2.13 2.89 35.8 35.8 0 0 0 3.29 2.88l.14.12.68.56.01-.01h.01v-.01h.01l.02-.01.04-.03.01-.01.01-.01.56-.45.14-.12.7-.57a35.9 35.9 0 0 0 2.6-2.32c.87-.83 1.59-1.81 2.12-2.9.28-.58.43-1.22.44-1.87 0-.75-.3-1.47-.84-2a2.95 2.95 0 0 0-2.08-.83 3.35 3.35 0 0 0-2.5 1.09L10 6.7 8.74 5.26a3.32 3.32 0 0 0-2.49-1.1Z"
          fill="#303030"/>
</svg>