<svg width="20" height="20" viewBox="0 0 20 20" fill="none" xmlns="http://www.w3.org/2000/svg">
    <path fill-rule="evenodd" clip-rule="evenodd"
          d="M11.67 4.58a2.92 2.92 0 1 1 .83 2.05L8.23 9.22a2.92 2.92 0 0 1 .02 1.48l4.35 2.58a2.92 2.92 0 1 1-.85 1.43L7.4 12.14A2.9 2.9 0 0 1 2.5 10a2.92 2.92 0 0 1 4.84-2.2l4.38-2.65a2.94 2.94 0 0 1-.05-.57Zm2.91-1.25a1.25 1.25 0 1 0 0 2.5 1.25 1.25 0 0 0 0-2.5ZM5.42 8.75a1.25 1.25 0 1 0 0 2.5 1.25 1.25 0 0 0 0-2.5Zm9.16 5.42a1.25 1.25 0 1 0 0 2.5 1.25 1.25 0 0 0 0-2.5Z"
          fill="#C9C9C9"/>
</svg>