<svg width="24" height="24" viewBox="0 0 24 24" fill="none" xmlns="http://www.w3.org/2000/svg">
    <path fill-rule="evenodd" clip-rule="evenodd"
          d="M13 3.5a1 1 0 1 0-2 0v2.05c-.96.1-1.87.33-2.73.66l-.83-1.16a1 1 0 1 0-1.62 1.17l.64.89c-.53.32-1.03.68-1.47 1.07C3.25 9.67 2 11.67 2 13.5s1.25 3.83 2.99 5.32A10.9 10.9 0 0 0 12 21.5a10.9 10.9 0 0 0 7.01-2.68C20.75 17.34 22 15.33 22 13.5s-1.25-3.84-2.99-5.32c-.33-.29-.68-.56-1.05-.8l.67-.94A1 1 0 1 0 17 5.27l-.8 1.13c-.99-.43-2.06-.73-3.2-.85V3.5Zm-1 6a4 4 0 1 0 0 8 4 4 0 0 0 0-8Z"
          fill="#C9C9C9"/>
</svg>
