<svg width="16" height="16" viewBox="0 0 16 16" fill="none" xmlns="http://www.w3.org/2000/svg">
    <g clip-path="url(#a)">
        <path d="m15.56 11.74-2.23-2.23c-.8-.8-2.15-.48-2.47.56a1.52 1.52 0 0 1-1.75.95c-1.6-.4-3.75-2.47-4.15-4.14-.24-.72.24-1.52.96-1.76 1.03-.32 1.35-1.67.55-2.47L4.24.42c-.64-.56-1.6-.56-2.15 0L.57 1.93c-1.51 1.6.16 5.83 3.91 9.57 3.75 3.75 7.97 5.5 9.57 3.91l1.51-1.51c.56-.64.56-1.6 0-2.16Z"
              fill="#303030"/>
    </g>
    <defs>
        <clipPath id="a">
            <path fill="#fff" d="M0 0h16v16H0z"/>
        </clipPath>
    </defs>
</svg>
