<svg>
    <symbol viewBox="0 0 17 8" id="icon-arrow">
        <path d="M.65 4.35a.5.5 0 0 1 0-.7L3.83.46a.5.5 0 1 1 .7.71L1.72 4l2.83 2.83a.5.5 0 1 1-.71.7L.65 4.36ZM17 4.5H1v-1h16v1Z"/>
    </symbol>
    <symbol viewBox="0 0 20 20" id="icon-bag">
        <rect x="2" y="5" width="16" height="13" rx="1" fill="#fff"/>
        <mask id="a" fill="#fff">
            <rect x="2" y="5" width="16" height="13" rx="1"/>
        </mask>
        <rect x="2" y="5" width="16" height="13" rx="1" stroke="#303030" stroke-width="3.2" mask="url(#a)"/>
        <path d="M6 9V6a4 4 0 0 1 8 0v3" stroke="#303030" stroke-width="1.6"/>
    </symbol>
    <symbol viewBox="0 0 20 20" id="icon-chart">
        <line x1="5.1" y1="10" x2="5.1" y2="17" stroke="#303030" stroke-width="2.2"/>
        <line x1="10.1" y1="2" x2="10.1" y2="17" stroke="#303030" stroke-width="2.2"/>
        <line x1="15.1" y1="5" x2="15.1" y2="17" stroke="#303030" stroke-width="2.2"/>
    </symbol>
    <symbol viewBox="0 0 24 24" id="icon-eye">
        <path fill-rule="evenodd" clip-rule="evenodd"
              d="M13 3.5a1 1 0 1 0-2 0v2.05c-.96.1-1.87.33-2.73.66l-.83-1.16a1 1 0 1 0-1.62 1.17l.64.89c-.53.32-1.03.68-1.47 1.07C3.25 9.67 2 11.67 2 13.5s1.25 3.83 2.99 5.32A10.9 10.9 0 0 0 12 21.5a10.9 10.9 0 0 0 7.01-2.68C20.75 17.34 22 15.33 22 13.5s-1.25-3.84-2.99-5.32c-.33-.29-.68-.56-1.05-.8l.67-.94A1 1 0 1 0 17 5.27l-.8 1.13c-.99-.43-2.06-.73-3.2-.85V3.5Zm-1 6a4 4 0 1 0 0 8 4 4 0 0 0 0-8Z"/>
    </symbol>
    <symbol viewBox="0 0 20 20" id="icon-heart">
        <path d="M10 17.5c-.54-.48-1.15-.97-1.79-1.5-2.27-1.85-4.83-3.94-5.97-6.45A6.19 6.19 0 0 1 1.67 7a4.5 4.5 0 0 1 4.58-4.5A5.13 5.13 0 0 1 10 4.17a5.13 5.13 0 0 1 3.75-1.67A4.5 4.5 0 0 1 18.33 7c0 .88-.2 1.75-.57 2.55-1.14 2.51-3.7 4.6-5.96 6.45h-.01c-.64.53-1.25 1.03-1.79 1.5ZM6.25 4.17a2.95 2.95 0 0 0-2.08.82A2.79 2.79 0 0 0 3.33 7c.01.64.16 1.27.43 1.86a10.26 10.26 0 0 0 2.13 2.89 35.8 35.8 0 0 0 3.29 2.88l.14.12.68.56.01-.01h.01v-.01h.01l.02-.01.04-.03.01-.01.01-.01.56-.45.14-.12.7-.57c.82-.68 1.77-1.48 2.6-2.32.87-.83 1.59-1.81 2.12-2.9.28-.58.43-1.22.44-1.87 0-.75-.3-1.47-.84-2a2.95 2.95 0 0 0-2.08-.83c-.95-.01-1.86.39-2.5 1.09L10 6.7 8.74 5.26a3.32 3.32 0 0 0-2.49-1.1Z"/>
    </symbol>
    <symbol viewBox="0 0 20 18" id="icon-heart-item">
        <path d="M0 5.4A5.4 5.4 0 0 1 5.5 0 6 6 0 0 1 10 2a6 6 0 0 1 4.5-2A5.4 5.4 0 0 1 20 5.4c0 5.36-6.38 9.4-10 12.6C6.39 14.77 0 10.76 0 5.4Z"/>
    </symbol>
    <symbol viewBox="0 0 20 20" id="icon-loupe">
        <path fill-rule="evenodd" clip-rule="evenodd"
              d="M13.2 8.5a4.7 4.7 0 1 1-9.4 0 4.7 4.7 0 0 1 9.4 0Zm-1.14 5.44a6.5 6.5 0 1 1 1.3-1.12l3.91 3.9L16 18l-4-4 .06-.06Z"/>
    </symbol>
    <symbol viewBox="0 0 16 16" id="icon-phone">
        <g clip-path="url(#clip0_205_55)">
            <path d="M15.5645 11.7424L13.3317 9.50954C12.5342 8.71209 11.1786 9.0311 10.8596 10.0678C10.6204 10.7855 9.82292 11.1842 9.10522 11.0247C7.51033 10.626 5.35723 8.5526 4.9585 6.87797C4.71927 6.16024 5.19774 5.36279 5.91544 5.12359C6.95212 4.80461 7.2711 3.44895 6.47365 2.65151L4.2408 0.418659C3.60285 -0.139553 2.64591 -0.139553 2.0877 0.418659L0.572553 1.93381C-0.942594 3.5287 0.732042 7.75516 4.48004 11.5032C8.22803 15.2511 12.4545 17.0056 14.0494 15.4106L15.5645 13.8955C16.1228 13.2575 16.1228 12.3006 15.5645 11.7424Z" fill="#303030"/>
        </g>
        <defs>
            <clipPath id="clip0_205_55">
                <rect width="16" height="16" fill="white"/>
            </clipPath>
        </defs>
    </symbol>
    <symbol viewBox="0 0 16 16" id="icon-pin">
        <path d="M7.99995 0C4.80479 0 2.20535 2.59944 2.20535 5.79456C2.20535 9.75981 7.39095 15.581 7.61173 15.8269C7.8191 16.0579 8.18117 16.0575 8.38817 15.8269C8.60895 15.581 13.7945 9.75981 13.7945 5.79456C13.7945 2.59944 11.1951 0 7.99995 0ZM7.99995 8.70997C6.39238 8.70997 5.08457 7.40213 5.08457 5.79456C5.08457 4.187 6.39242 2.87919 7.99995 2.87919C9.60748 2.87919 10.9153 4.18703 10.9153 5.79459C10.9153 7.40216 9.60748 8.70997 7.99995 8.70997Z" fill="#303030"/>
    </symbol>
    <symbol viewBox="0 0 20 20" id="icon-share">
        <path fill-rule="evenodd" clip-rule="evenodd"
              d="M11.67 4.58a2.92 2.92 0 1 1 .83 2.05L8.23 9.22a2.92 2.92 0 0 1 .02 1.48l4.35 2.58a2.92 2.92 0 1 1-.85 1.43L7.4 12.14A2.9 2.9 0 0 1 2.5 10a2.92 2.92 0 0 1 4.84-2.2l4.38-2.65a2.94 2.94 0 0 1-.05-.57Zm2.91-1.25a1.25 1.25 0 1 0 0 2.5 1.25 1.25 0 0 0 0-2.5ZM5.42 8.75a1.25 1.25 0 1 0 0 2.5 1.25 1.25 0 0 0 0-2.5Zm9.16 5.42a1.25 1.25 0 1 0 0 2.5 1.25 1.25 0 0 0 0-2.5Z"/>
    </symbol>
    <symbol viewBox="0 0 17 16" id="icon-star">
        <path d="m8.5 1.26 1.84 4.27.12.28.3.02 4.62.43-3.5 3.07-.21.2.06.29 1.02 4.53-4-2.37-.25-.15-.26.15-4 2.37 1.03-4.53.06-.3-.22-.19-3.5-3.07 4.64-.43.3-.02.11-.28L8.5 1.26Z"/>
    </symbol>
</svg>